<?xml version="1.0" encoding="utf-8"?>
<!-- Generator: Adobe Illustrator 24.2.1, SVG Export Plug-In . SVG Version: 6.00 Build 0)  -->
<svg version="1.1" id="Layer_1" xmlns="http://www.w3.org/2000/svg" xmlns:xlink="http://www.w3.org/1999/xlink" x="0px" y="0px"
	 viewBox="0 0 1190.6 841.9" style="enable-background:new 0 0 1190.6 841.9;" xml:space="preserve">
<style type="text/css">
	.st0{fill:#F79051;}
	.st1{fill:#FFFFFF;}
</style>
<g>
	<g>
		<rect x="229.5" y="118.3" class="st0" width="108.5" height="130.2"/>
	</g>
	<g>
		<path class="st1" d="M258.9,118.1c2.7,7.5,3.6,14,4,18.6c0.4,5.5,0.9,11.3-1.1,18.3c-2.1,7.3-5.7,12.5-8.2,15.4
			c-1-1.8-4.1-6.9-10.7-9.9c-6.1-2.8-11.6-2.1-13.6-1.7V200c6,7.3,12.3,14.7,19.2,22.2c8.5,9.4,17,18.2,25.3,26.3
			c9.7,0,19.4,0,29.1,0c-6.8-5.9-13.7-12.3-20.7-19.1c-11.9-11.6-22.6-23-32.1-34c1.3-0.4,2.8-0.9,4.3-1.6c3-1.4,5.4-3.1,7.1-4.6
			c3.4,1.1,7.1,2,10.8,2.9c13.8,3.2,28.1,4.4,42.3,3.8c0,0,15.8-0.5,23.7-4.1v-19.3c0,0-22.5,9.4-63.3,1.9c1.4-1.8,3.5-4.7,5.3-8.6
			c6.4-13.8,3.8-27.8,2.4-35.6c-0.6-3.1-1.5-7.3-3.3-12.2C272.4,118.1,265.6,118.1,258.9,118.1z"/>
	</g>
</g>
<g>
	<g>
		<path class="st0" d="M398.2,201.8c0,4.2-1,7.9-3.1,10.9c-2.1,3-5.1,5.3-8.9,6.9s-8.3,2.4-13.6,2.4c-2.6,0-5.2-0.1-7.5-0.4
			c-2.4-0.3-4.6-0.7-6.7-1.2c-2.1-0.5-3.9-1.2-5.6-2V209c2.7,1.1,5.8,2.1,9.4,3.1c3.5,1,7.2,1.4,11,1.4c3.3,0,6-0.4,8.3-1.3
			c2.2-0.9,3.9-2.2,5.1-3.8c1.1-1.6,1.7-3.6,1.7-5.9c0-2.3-0.6-4.2-1.7-5.7c-1.1-1.5-2.9-3-5.2-4.3c-2.4-1.3-5.5-2.7-9.4-4.2
			c-2.7-1-5.2-2.1-7.4-3.3c-2.2-1.3-4.1-2.7-5.7-4.3c-1.6-1.6-2.9-3.5-3.7-5.7s-1.3-4.7-1.3-7.6c0-3.9,1-7.3,2.9-10.1
			c1.9-2.8,4.6-4.9,8.1-6.4c3.5-1.5,7.5-2.2,12.1-2.2c3.8,0,7.3,0.4,10.6,1.1c3.3,0.7,6.4,1.8,9.4,3.1l-3.2,8.3
			c-2.8-1.1-5.6-2.1-8.3-2.8c-2.8-0.7-5.7-1.1-8.7-1.1c-2.8,0-5.1,0.4-7,1.2c-1.9,0.8-3.4,2-4.3,3.5c-1,1.5-1.5,3.3-1.5,5.3
			c0,2.3,0.5,4.2,1.6,5.8c1,1.5,2.7,2.9,4.9,4.2c2.2,1.2,5.2,2.6,8.8,4c4.1,1.6,7.5,3.2,10.4,5c2.8,1.8,5,3.9,6.5,6.3
			C397.4,194.9,398.2,198.1,398.2,201.8z"/>
		<path class="st0" d="M431.7,166.3c6.6,0,11.6,1.5,14.9,4.4c3.3,2.9,4.9,7.6,4.9,13.9V221h-7l-1.9-7.8h-0.4c-1.5,2-3.1,3.6-4.7,4.9
			c-1.6,1.3-3.5,2.3-5.6,2.9c-2.1,0.7-4.7,1-7.8,1c-3.3,0-6.2-0.6-8.7-1.8s-4.5-2.9-6-5.3c-1.4-2.4-2.2-5.4-2.2-9
			c0-5.5,2.1-9.6,6.3-12.5s10.6-4.4,19.1-4.6l9.3-0.4v-3c0-4.2-0.9-7.2-2.8-8.9c-1.9-1.7-4.5-2.6-7.8-2.6c-2.8,0-5.4,0.4-8,1.2
			c-2.5,0.8-5,1.8-7.3,2.9l-3.1-7.1c2.5-1.3,5.4-2.4,8.7-3.3C424.7,166.7,428.1,166.3,431.7,166.3z M441.8,194.9l-7.5,0.3
			c-6.2,0.2-10.6,1.3-13.1,3.1c-2.5,1.8-3.8,4.4-3.8,7.7c0,2.9,0.9,5,2.6,6.3c1.7,1.3,4,2,6.8,2c4.4,0,8-1.2,10.8-3.7
			c2.8-2.5,4.2-6.1,4.2-10.9V194.9z"/>
		<path class="st0" d="M477.6,145v38.1c0,1.5-0.1,3.2-0.2,5.1c-0.1,1.9-0.2,3.7-0.3,5.2h0.3c0.7-1,1.7-2.3,3-3.9
			c1.3-1.6,2.4-2.9,3.3-4.1l17.2-18.4h11.3l-21.6,23.1l23.1,30.7h-11.6l-18.1-24.6l-6.5,5.8V221h-9.8v-76H477.6z"/>
		<path class="st0" d="M543.4,166.3c6.6,0,11.6,1.5,14.9,4.4c3.3,2.9,4.9,7.6,4.9,13.9V221h-7l-1.9-7.8h-0.4c-1.5,2-3.1,3.6-4.7,4.9
			c-1.6,1.3-3.5,2.3-5.6,2.9c-2.1,0.7-4.7,1-7.8,1c-3.3,0-6.2-0.6-8.7-1.8s-4.5-2.9-6-5.3c-1.4-2.4-2.2-5.4-2.2-9
			c0-5.5,2.1-9.6,6.3-12.5s10.6-4.4,19.1-4.6l9.3-0.4v-3c0-4.2-0.9-7.2-2.8-8.9c-1.9-1.7-4.5-2.6-7.8-2.6c-2.8,0-5.4,0.4-8,1.2
			c-2.5,0.8-5,1.8-7.3,2.9l-3.1-7.1c2.5-1.3,5.4-2.4,8.7-3.3C536.4,166.7,539.8,166.3,543.4,166.3z M553.5,194.9l-7.5,0.3
			c-6.2,0.2-10.6,1.3-13.1,3.1c-2.5,1.8-3.8,4.4-3.8,7.7c0,2.9,0.9,5,2.6,6.3c1.7,1.3,4,2,6.8,2c4.4,0,8-1.2,10.8-3.7
			c2.8-2.5,4.2-6.1,4.2-10.9V194.9z"/>
		<path class="st0" d="M605.4,166.2c1,0,2,0.1,3.2,0.2c1.1,0.1,2.1,0.3,2.9,0.4l-1,9.1c-0.8-0.2-1.7-0.4-2.7-0.5
			c-1-0.1-2-0.2-2.9-0.2c-2.1,0-4.1,0.4-6,1.2c-1.9,0.8-3.5,1.9-5,3.4c-1.4,1.5-2.6,3.3-3.4,5.4c-0.8,2.1-1.2,4.6-1.2,7.3V221h-9.9
			v-53.8h7.9l1.2,9.7h0.4c1.1-2,2.4-3.7,4-5.4c1.6-1.6,3.4-2.9,5.5-3.9C600.7,166.7,602.9,166.2,605.4,166.2z"/>
		<path d="M641.3,152.5c5.8,0,10.6,0.7,14.3,2.1c3.8,1.4,6.6,3.6,8.4,6.5c1.8,2.9,2.8,6.6,2.8,11c0,3.5-0.6,6.5-1.9,8.9
			c-1.3,2.4-3,4.4-5,5.9c-2.1,1.5-4.3,2.7-6.7,3.6l19.2,30.6h-11l-16.7-28H632v28h-9.6v-68.5H641.3z M640.7,160.6H632V185h9.3
			c5.4,0,9.4-1.1,11.9-3.2c2.5-2.1,3.8-5.2,3.8-9.4c0-4.3-1.3-7.3-4-9.1C650.3,161.5,646.2,160.6,640.7,160.6z"/>
		<path d="M726.6,195.1c0,4.3-0.6,8-1.7,11.4c-1.1,3.3-2.7,6.1-4.8,8.4s-4.6,4-7.6,5.3c-3,1.2-6.3,1.8-10.1,1.8
			c-3.5,0-6.7-0.6-9.6-1.8c-2.9-1.2-5.4-3-7.6-5.3c-2.1-2.3-3.8-5.1-4.9-8.4c-1.2-3.3-1.7-7.1-1.7-11.4c0-5.7,1-10.5,2.9-14.5
			c1.9-4,4.7-7,8.3-9.1s7.9-3.1,12.9-3.1c4.8,0,8.9,1,12.5,3.1c3.6,2.1,6.4,5.1,8.4,9.1C725.6,184.6,726.6,189.4,726.6,195.1z
			 M688.3,195.1c0,4,0.5,7.4,1.5,10.2c1,2.9,2.6,5.1,4.7,6.6s4.8,2.3,8.2,2.3c3.3,0,6-0.8,8.1-2.3c2.1-1.5,3.7-3.7,4.7-6.6
			c1-2.9,1.5-6.3,1.5-10.2c0-3.9-0.5-7.3-1.5-10.1c-1-2.8-2.6-5-4.7-6.5s-4.9-2.3-8.2-2.3c-4.9,0-8.6,1.6-10.9,4.9
			S688.3,189.1,688.3,195.1z"/>
		<path d="M749.1,148.1V166c0,2.1-0.1,4.1-0.2,6c-0.1,2-0.2,3.5-0.3,4.5h0.5c1.4-2.3,3.4-4.2,6-5.7s5.9-2.4,10-2.4
			c6.3,0,11.3,2.2,15.1,6.7s5.7,11.1,5.7,19.9c0,5.8-0.9,10.7-2.6,14.7s-4.2,7-7.3,9c-3.1,2-6.8,3-11.1,3c-4,0-7.3-0.7-9.8-2.2
			c-2.5-1.5-4.5-3.3-5.9-5.3h-0.7l-1.8,6.6h-7v-72.9H749.1z M762.9,176.2c-3.4,0-6.1,0.7-8.1,2s-3.5,3.4-4.3,6.1
			c-0.9,2.7-1.3,6.1-1.4,10.3v0.7c0,6.1,1,10.8,3,14.1c2,3.3,5.6,4.9,10.9,4.9c4.3,0,7.6-1.7,9.8-5c2.2-3.3,3.4-8,3.4-14.2
			c0-6.3-1.1-11-3.3-14.1C770.6,177.8,767.3,176.2,762.9,176.2z"/>
		<path d="M844.1,195.1c0,4.3-0.6,8-1.7,11.4s-2.7,6.1-4.8,8.4s-4.6,4-7.6,5.3s-6.3,1.8-10.1,1.8c-3.5,0-6.7-0.6-9.6-1.8
			s-5.4-3-7.6-5.3s-3.8-5.1-4.9-8.4s-1.7-7.1-1.7-11.4c0-5.7,1-10.5,2.9-14.5s4.7-7,8.3-9.1s7.9-3.1,12.9-3.1c4.8,0,8.9,1,12.5,3.1
			s6.4,5.1,8.4,9.1S844.1,189.4,844.1,195.1z M805.7,195.1c0,4,0.5,7.4,1.5,10.2s2.6,5.1,4.7,6.6s4.8,2.3,8.2,2.3
			c3.3,0,6-0.8,8.1-2.3s3.7-3.7,4.7-6.6s1.5-6.3,1.5-10.2c0-3.9-0.5-7.3-1.5-10.1s-2.6-5-4.7-6.5s-4.9-2.3-8.2-2.3
			c-4.9,0-8.6,1.6-10.9,4.9S805.7,189.1,805.7,195.1z"/>
		<path d="M875.1,214.3c1.3,0,2.7-0.1,4.1-0.4s2.6-0.5,3.6-0.9v7.2c-1.1,0.5-2.5,0.9-4.2,1.2s-3.6,0.5-5.4,0.5
			c-2.8,0-5.4-0.5-7.6-1.5s-4.1-2.6-5.5-5s-2-5.6-2-9.8v-29.2h-7.2v-4.4l7.5-3.5l3.3-11.2h5.8v11.7h15v7.3h-15v29
			c0,2.9,0.7,5.1,2.1,6.5S872.8,214.3,875.1,214.3z"/>
		<path d="M898,149.8c1.5,0,2.8,0.4,3.9,1.3s1.6,2.3,1.6,4.3s-0.5,3.4-1.6,4.3s-2.4,1.3-3.9,1.3c-1.5,0-2.8-0.4-3.9-1.3
			s-1.6-2.3-1.6-4.3s0.5-3.4,1.6-4.3S896.4,149.8,898,149.8z M902.6,169.4V221h-9.4v-51.7H902.6z"/>
		<path d="M939.5,222c-4.8,0-8.9-1-12.5-2.9s-6.3-4.8-8.3-8.7s-2.9-8.9-2.9-14.9c0-6.3,1-11.4,3.1-15.4s5-6.9,8.7-8.8
			s7.9-2.9,12.7-2.9c2.8,0,5.4,0.3,7.9,0.8s4.5,1.3,6.2,2.1l-2.8,7.6c-1.8-0.7-3.6-1.3-5.6-1.8s-3.9-0.8-5.7-0.8
			c-3.3,0-6.1,0.7-8.2,2.2s-3.8,3.6-4.9,6.4s-1.6,6.3-1.6,10.4c0,4,0.5,7.4,1.6,10.1s2.7,4.9,4.8,6.3s4.7,2.2,7.9,2.2
			c2.8,0,5.3-0.3,7.5-0.9s4.3-1.4,6.1-2.4v8.3c-1.8,1-3.8,1.8-6,2.3S942.6,222,939.5,222z"/>
		<path d="M999.6,206.6c0,3.3-0.8,6.2-2.5,8.5s-4,4-7.1,5.2s-6.9,1.7-11.3,1.7c-3.6,0-6.8-0.3-9.4-0.8s-5-1.3-7.1-2.4v-8.3
			c2.3,1.1,4.9,2.1,7.9,2.9s5.9,1.3,8.8,1.3c4,0,6.9-0.6,8.7-1.9s2.7-3,2.7-5.2c0-1.3-0.4-2.4-1.1-3.4s-2-2-3.8-3s-4.4-2.1-7.7-3.4
			c-3.3-1.3-6.1-2.6-8.4-3.8s-4.1-2.8-5.3-4.6s-1.8-4.2-1.8-7c0-4.5,1.8-7.9,5.4-10.2s8.3-3.5,14.2-3.5c3.1,0,6.1,0.3,8.8,0.9
			s5.4,1.5,7.9,2.6l-3,7.3c-2.3-1-4.6-1.8-6.9-2.4s-4.8-1-7.3-1c-3.2,0-5.7,0.5-7.4,1.5s-2.6,2.5-2.6,4.3c0,1.4,0.4,2.6,1.2,3.5
			s2.1,1.9,4,2.7s4.4,1.9,7.6,3.2c3.2,1.2,5.9,2.4,8.2,3.7s4.1,2.8,5.3,4.7S999.6,203.7,999.6,206.6z"/>
	</g>
	<g>
		<rect x="343.8" y="228.8" class="st0" width="60" height="5.5"/>
	</g>
	<g>
		<rect x="617.4" y="226" width="59.1" height="5.5"/>
	</g>
</g>
<g>
	<path d="M988.6,140.2h-1V134h-2.2v-0.9h5.3v0.9h-2.2V140.2z"/>
	<path d="M994.9,140.2l-2.2-6.1h0c0,0.1,0,0.3,0,0.5s0,0.4,0,0.7s0,0.5,0,0.7v4.2h-0.9v-7.1h1.4l2.1,5.8h0l2.2-5.8h1.4v7.1h-1V136
		c0-0.2,0-0.4,0-0.7c0-0.2,0-0.5,0-0.7s0-0.4,0-0.5h0l-2.3,6.1H994.9z"/>
</g>
<g>
	<path d="M992.7,148.5c-6.2,0-11.3-5-11.3-11.3s5-11.3,11.3-11.3s11.3,5,11.3,11.3S998.9,148.5,992.7,148.5z M992.7,127
		c-5.7,0-10.3,4.6-10.3,10.3s4.6,10.3,10.3,10.3s10.3-4.6,10.3-10.3S998.3,127,992.7,127z"/>
</g>
</svg>
